<svg xmlns="http://www.w3.org/2000/svg" width="165" height="35.06" viewBox="0 0 165 35.06">
    <defs>
        <clipPath id="a">
            <rect width="165" height="35.06" transform="translate(267.731 111.065)" fill="none"/>
        </clipPath>
        <clipPath id="c">
            <rect width="165" height="35.06"/>
        </clipPath>
    </defs>
    <g id="b" clip-path="url(#c)">
        <rect width="165" height="35.06" fill="transparent"/>
        <g transform="translate(-267.731 -111.065)">
            <g clip-path="url(#a)">
                <path d="M419.042,115.2h0a.635.635,0,0,0-.919.264l-1.314,2.339c-.211.3-.167.639.256.936.744.582,1.118,1.69,1.118,3.611a37.949,37.949,0,0,1-.695,5.846c-1.059,6.184-2.984,13.518-6.45,14.48,0,0-.389.047-.6.047a2.138,2.138,0,0,1-1.579-.541,2.163,2.163,0,0,1-.658-1.535,13.036,13.036,0,0,1,.043-2.657q.159-1.437.54-3.754c.891-4.762,1.2-5.362,1.664-8.524.07-.34-.07-.509-.424-.509h-2.735a.507.507,0,0,0-.572.424c-.283,1.573-.6,2.131-1.706,8.4-.2,1.22-.363,2.134-.5,2.743s-.3,1.33-.508,2.159a9.874,9.874,0,0,1-.583,1.806,7.32,7.32,0,0,1-.731,1.169,2.367,2.367,0,0,1-1.039.83,3.7,3.7,0,0,1-1.325.223q-2.48,0-2.586-3.274a38.786,38.786,0,0,1,1.1-8.888c.057-.226.1-.412.127-.553q.657-3.849,1.611-7.719a.6.6,0,0,0-.116-.488.515.515,0,0,0-.413-.191h-4.6a.463.463,0,0,0-.552.467l-.318,1.616q-.064.468.36.511l1.421.1c.126.029.176.085.148.171q-.826,3.38-1.441,6.783-.445,2.658-.658,4.072t-.36,3.4a10.2,10.2,0,0,0,.105,3.008,10,10,0,0,0,.8,2.085,3.053,3.053,0,0,0,1.654,1.5,7.672,7.672,0,0,0,2.767.435q4.219,0,6.063-3.125a.19.19,0,0,1,.2-.106.194.194,0,0,1,.159.149,3.762,3.762,0,0,0,1.6,2.274,5.471,5.471,0,0,0,3.084.808c6.825,0,9.55-11.136,10.743-17.8a35.125,35.125,0,0,0,.7-6.441c0-3.089-.774-5.269-2.876-6.554m-124.036,7.107q.063-.466-.424-.467h-4.749a.512.512,0,0,0-.593.467l-.277,1.616q-.063.468.361.511l1.378.1a.113.113,0,0,1,.127.129L288.01,140.64q-.51,2.892.552,4.147a4.285,4.285,0,0,0,3.454,1.254,11.549,11.549,0,0,0,1.421-.127.558.558,0,0,0,.53-.512l.3-1.976c.071-.312-.07-.469-.424-.469a1.97,1.97,0,0,1-.784.086q-1.674-.043-1.25-2.489Zm-8.8-7.889h-4.813a.526.526,0,0,0-.572.489l-.254,1.617q-.086.468.339.51l1.441.085c.085.015.113.077.085.191l-1.229,6.953c-.029.171-.072.2-.128.085A3.43,3.43,0,0,0,279.7,122.4a4.318,4.318,0,0,0-2.608-.787,6.41,6.41,0,0,0-5.523,2.924q-2.045,2.924-3.127,9.111a39.081,39.081,0,0,0-.71,6.24,9,9,0,0,0,.605,3.849,3.807,3.807,0,0,0,1.654,1.871,5.753,5.753,0,0,0,2.628.521,6.982,6.982,0,0,0,5.682-3c.084-.113.141-.1.169.043q.361,2.829,3.476,2.828a8.053,8.053,0,0,0,1.824-.213q.488-.148.529-.531l.255-1.723q.105-.446-.424-.488a4.887,4.887,0,0,1-.827.084q-1.611-.19-1.229-2.4l4.515-25.813c.07-.326-.056-.489-.381-.489m-6.17,16.331q-.211,1.594-.465,2.934-.192,1.02-.488,2.551a13.442,13.442,0,0,1-1.993,5.348,3.59,3.59,0,0,1-2.9,1.541,2.368,2.368,0,0,1-2.46-1.572q-.592-1.575-.021-5.4.255-1.467.424-2.55.276-1.405.573-2.978a11.986,11.986,0,0,1,1.866-4.784,3.634,3.634,0,0,1,2.946-1.3,2.353,2.353,0,0,1,2.237,1.383q.708,1.381.285,4.827M314.3,143.127a2.972,2.972,0,0,1-.847.043q-1.569-.213-1.144-2.658l1.991-11.4q.7-3.978-.38-5.742t-4.071-1.765a7.046,7.046,0,0,0-3.435.883,8.2,8.2,0,0,0-2.607,2.18q-.17.213-.169-.044l.3-2.36a.375.375,0,0,0-.425-.424h-4.43a.525.525,0,0,0-.615.467l-.255,1.616q-.084.468.34.511l1.527.1a.167.167,0,0,1,.126.171L296.553,145.3c-.071.327.057.489.382.489h2.777a.526.526,0,0,0,.572-.489l2.523-14.4a9.34,9.34,0,0,1,1.929-4.583,4.321,4.321,0,0,1,3.37-1.646q1.866,0,2.332,1.212a7.128,7.128,0,0,1,.043,3.613L308.4,141.383q-.446,2.576.626,3.616a4.914,4.914,0,0,0,3.509,1.042,11.569,11.569,0,0,0,1.42-.127.61.61,0,0,0,.53-.512l.254-1.785c.028-.27-.12-.433-.446-.49m-20.244-27.344a2.873,2.873,0,0,0-1.708.329,2.543,2.543,0,0,0-.539,1.457c-.157.78-.152,1.28.01,1.5s.69.33,1.58.33a2.8,2.8,0,0,0,1.674-.33,2.7,2.7,0,0,0,.594-1.5q.211-1.126-.054-1.457t-1.557-.329m96.2,7.166a4.825,4.825,0,0,0-1.909-1.053,9.648,9.648,0,0,0-2.522-.287,10.176,10.176,0,0,0-3.3.479,7.459,7.459,0,0,0-2.693,1.722,10.125,10.125,0,0,0-2.257,3.711,33.534,33.534,0,0,0-1.612,6.208,38.051,38.051,0,0,0-.551,5.326,12.819,12.819,0,0,0,.34,3.594,4.416,4.416,0,0,0,1.251,2.138,4.573,4.573,0,0,0,1.908,1.062,10.146,10.146,0,0,0,2.565.276,9.952,9.952,0,0,0,3.275-.478,7.276,7.276,0,0,0,2.671-1.764,10.537,10.537,0,0,0,2.258-3.807,37.169,37.169,0,0,0,1.653-6.347,32.554,32.554,0,0,0,.552-5.187,12.305,12.305,0,0,0-.371-3.5,4.354,4.354,0,0,0-1.261-2.1m-2.206,8.08q-.232,1.4-.445,2.743-.212,1.317-.466,2.615a14.052,14.052,0,0,1-1.983,5.326,3.758,3.758,0,0,1-3.148,1.5,2.637,2.637,0,0,1-2.691-1.477q-.658-1.478-.085-5.263.168-1.36.413-2.7t.541-2.743a12.73,12.73,0,0,1,1.939-5.05,3.874,3.874,0,0,1,3.191-1.436,2.582,2.582,0,0,1,2.608,1.436q.657,1.436.126,5.05m-11.681-6.146.7-2.572c.085-.311-.015-.482-.3-.51a4.3,4.3,0,0,0-1.124-.149q-3.39,0-5.426,3.7c-.029.07-.061.1-.095.074s-.039-.06-.011-.117l.36-3.041q.042-.424-.445-.424h-4.558a.513.513,0,0,0-.594.467l-.275,1.616c-.042.312.077.482.36.511l1.42.1c.156.029.22.1.191.213l-3.6,20.54c-.072.327.056.489.381.489h2.777a.525.525,0,0,0,.572-.489l2.565-14.438a8.141,8.141,0,0,1,1.856-4.081,4.221,4.221,0,0,1,3.211-1.723,5.68,5.68,0,0,1,1.442.171.415.415,0,0,0,.593-.342m-16.175-9.1a2.863,2.863,0,0,0-1.706.329,2.534,2.534,0,0,0-.541,1.457q-.234,1.17.01,1.5t1.58.33a2.8,2.8,0,0,0,1.675-.33,2.707,2.707,0,0,0,.593-1.5q.212-1.126-.052-1.457t-1.559-.329m-25.142,27.748a2.586,2.586,0,0,1-1.039-.105q-1.506-.192-1.082-2.553l1.654-9.589q.636-3.657-.572-5.38t-4.389-1.721a7.339,7.339,0,0,0-2.755.573,7.634,7.634,0,0,0-2.46,1.574.06.06,0,0,1-.085.011.143.143,0,0,1-.042-.118q.232-1.126.445-2.083a13.328,13.328,0,0,0,5.9-2.148,6.148,6.148,0,0,0,2.809-4.167,3.15,3.15,0,0,0-.626-2.786,3.691,3.691,0,0,0-2.937-1.084q-5.532,0-7.843,7.889h-1.908c-.326,0-.5.141-.53.424l-.255,1.446q-.084.384.3.426l1.824.127q-.129.617-.255,1.277l-3.477,19.815c-.057.284.057.426.339.426h2.481a.484.484,0,0,0,.53-.426L323.2,133.07a9.647,9.647,0,0,1,1.962-4.487,4.376,4.376,0,0,1,3.466-1.7,2.723,2.723,0,0,1,2.014.682,2.5,2.5,0,0,1,.7,1.795,17.118,17.118,0,0,1-.147,2.457l-1.739,9.739q-.445,2.486.572,3.508a4.572,4.572,0,0,0,3.328,1.021,10.933,10.933,0,0,0,1.4-.128.532.532,0,0,0,.466-.51l.234-1.575a.238.238,0,0,0-.054-.254.533.533,0,0,0-.349-.086m-7.908-25.717a3.1,3.1,0,0,1,2.48-1.286,1.138,1.138,0,0,1,1.273,1.509,3.746,3.746,0,0,1-1.622,2.254,8.555,8.555,0,0,1-3.953,1.361,11.548,11.548,0,0,1,1.822-3.838m20.161,3.795a7.425,7.425,0,0,0-2.766.5,8.064,8.064,0,0,0-2.544,1.722,10.459,10.459,0,0,0-2.279,3.69,29.709,29.709,0,0,0-1.611,6.039,38.4,38.4,0,0,0-.51,4.529,12.986,12.986,0,0,0,.372,3.954,5.229,5.229,0,0,0,1.431,2.51,5.3,5.3,0,0,0,2.226,1.232,11.481,11.481,0,0,0,2.988.34,14.071,14.071,0,0,0,4.792-.829c.2-.056.3-.225.3-.509v-2c.014-.382-.156-.518-.51-.4a11.648,11.648,0,0,1-3.921.7,4.432,4.432,0,0,1-3.265-1q-.975-1-.89-3.528a22.588,22.588,0,0,1,.509-3.659c.027-.084.071-.126.127-.126q2.4-.129,3.91-.352a19.815,19.815,0,0,0,3.043-.7,6.019,6.019,0,0,0,2.375-1.285,6.344,6.344,0,0,0,1.409-2.116,8.561,8.561,0,0,0,.6-3.179A4.856,4.856,0,0,0,351.608,123a6.356,6.356,0,0,0-4.3-1.392m2.248,7.761a3.638,3.638,0,0,1-.976,1.35,4.74,4.74,0,0,1-1.7.851,14.218,14.218,0,0,1-2.12.479q-1.039.15-2.735.233a.064.064,0,0,1-.1,0,.151.151,0,0,1-.053-.127,16.241,16.241,0,0,1,2.247-5.912,3.971,3.971,0,0,1,3.286-1.806q2.628.019,2.544,2.891a5.623,5.623,0,0,1-.4,2.041m11.6-7.059c.043-.311-.1-.467-.423-.467h-4.749a.513.513,0,0,0-.594.467l-.275,1.616q-.066.468.359.511l1.378.1a.113.113,0,0,1,.128.129l-2.82,15.968q-.509,2.892.552,4.147a4.287,4.287,0,0,0,3.455,1.254,11.537,11.537,0,0,0,1.42-.127.558.558,0,0,0,.53-.512l.3-1.976c.07-.312-.071-.469-.425-.469a1.965,1.965,0,0,1-.783.086q-1.674-.043-1.251-2.489Z"
                      fill="#1dcad3"/>
                <path d="M414.512,115.379l-3.284-.749-.269-3.4a.569.569,0,0,0-.805,0l-1.223,3.4-3.494.749a.589.589,0,0,0-.113.808l3.284.748.271,3.4a.566.566,0,0,0,.8,0l1.224-3.4,3.493-.748a.588.588,0,0,0,.113-.808"
                      fill="#1dcad3"/>
                <path d="M432.658,121.2l-2.076-.473-.171-2.15a.36.36,0,0,0-.509,0l-.773,2.15-2.209.473a.371.371,0,0,0-.072.511l2.077.473.17,2.149a.358.358,0,0,0,.509,0l.774-2.149,2.209-.473a.371.371,0,0,0,.071-.511"
                      fill="#1dcad3"/>
                <path d="M386.516,133.243l-2.077-.474-.171-2.149a.357.357,0,0,0-.508,0l-.774,2.149-2.209.474a.37.37,0,0,0-.072.511l2.077.473.17,2.149a.361.361,0,0,0,.51,0l.773-2.149,2.209-.473a.371.371,0,0,0,.072-.511"
                      fill="#1dcad3"/>
            </g>
        </g>
    </g>
</svg>
